<?xml version="1.0" encoding="UTF-8" standalone="no"?>
<!-- Created with Inkscape (http://www.inkscape.org/) -->

<svg
   width="500"
   height="500"
   viewBox="0 0 500.00047 500.00001"
   version="1.1"
   id="svg1"
   xml:space="preserve"
   xmlns:xlink="http://www.w3.org/1999/xlink"
   xmlns="http://www.w3.org/2000/svg"
   xmlns:svg="http://www.w3.org/2000/svg"><defs
     id="defs1"><linearGradient
       id="linearGradient106"><stop
         style="stop-color:#2f3dfd;stop-opacity:1;"
         offset="0.02414773"
         id="stop104" /><stop
         style="stop-color:#65a9f3;stop-opacity:1;"
         offset="0.55255681"
         id="stop106" /></linearGradient><linearGradient
       id="linearGradient101"><stop
         style="stop-color:#3e3dff;stop-opacity:1;"
         offset="0.03267045"
         id="stop100" /><stop
         style="stop-color:#2f3dfd;stop-opacity:1;"
         offset="0.70738637"
         id="stop101" /></linearGradient><linearGradient
       id="linearGradient97"><stop
         style="stop-color:#794fff;stop-opacity:1;"
         offset="0.04119318"
         id="stop96" /><stop
         style="stop-color:#3e3dff;stop-opacity:1;"
         offset="0.53977275"
         id="stop97" /></linearGradient><linearGradient
       id="linearGradient91"><stop
         style="stop-color:#a226ff;stop-opacity:1;"
         offset="0"
         id="stop90" /><stop
         style="stop-color:#794fff;stop-opacity:1;"
         offset="0.60369313"
         id="stop91" /></linearGradient><linearGradient
       id="linearGradient87"><stop
         style="stop-color:#454545;stop-opacity:1;"
         offset="0"
         id="stop86" /><stop
         style="stop-color:#ffffff;stop-opacity:1;"
         offset="1"
         id="stop87" /></linearGradient><linearGradient
       id="linearGradient85"><stop
         style="stop-color:#4f4f4f;stop-opacity:1;"
         offset="0"
         id="stop84" /><stop
         style="stop-color:#ffffff;stop-opacity:1;"
         offset="1"
         id="stop85" /></linearGradient><linearGradient
       id="linearGradient83"><stop
         style="stop-color:#5c5c5c;stop-opacity:1;"
         offset="0"
         id="stop82" /><stop
         style="stop-color:#ffffff;stop-opacity:1;"
         offset="1"
         id="stop83" /></linearGradient><linearGradient
       id="linearGradient81"><stop
         style="stop-color:#393939;stop-opacity:1;"
         offset="0"
         id="stop80" /><stop
         style="stop-color:#ffffff;stop-opacity:1;"
         offset="1"
         id="stop81" /></linearGradient><linearGradient
       id="linearGradient66"><stop
         style="stop-color:#44fbff;stop-opacity:1;"
         offset="0"
         id="stop65" /><stop
         style="stop-color:#000ae2;stop-opacity:1;"
         offset="1"
         id="stop66" /></linearGradient><linearGradient
       id="linearGradient64"><stop
         style="stop-color:#42fcff;stop-opacity:1;"
         offset="0"
         id="stop63" /><stop
         style="stop-color:#000be2;stop-opacity:1;"
         offset="1"
         id="stop64" /></linearGradient><linearGradient
       id="linearGradient51"><stop
         style="stop-color:#ffffff;stop-opacity:1;"
         offset="0"
         id="stop51" /><stop
         style="stop-color:#ffffff;stop-opacity:1;"
         offset="1"
         id="stop52" /></linearGradient><linearGradient
       id="linearGradient39"><stop
         style="stop-color:#7700c3;stop-opacity:1;"
         offset="0"
         id="stop39" /><stop
         style="stop-color:#2200e2;stop-opacity:1;"
         offset="1"
         id="stop40" /></linearGradient><linearGradient
       id="linearGradient37"><stop
         style="stop-color:#37e4f0;stop-opacity:1;"
         offset="0"
         id="stop37" /><stop
         style="stop-color:#0900cd;stop-opacity:1;"
         offset="1"
         id="stop38" /></linearGradient><linearGradient
       id="linearGradient33"><stop
         style="stop-color:#ffffff;stop-opacity:1;"
         offset="0"
         id="stop34" /><stop
         style="stop-color:#ffffff;stop-opacity:1;"
         offset="1"
         id="stop35" /></linearGradient><linearGradient
       id="linearGradient30"><stop
         style="stop-color:#7959fb;stop-opacity:1;"
         offset="0.08096591"
         id="stop33" /><stop
         style="stop-color:#59f4fb;stop-opacity:1;"
         offset="0.47017047"
         id="stop31" /><stop
         style="stop-color:#0b00c8;stop-opacity:1;"
         offset="1"
         id="stop32" /></linearGradient><linearGradient
       id="linearGradient26"><stop
         style="stop-color:#0210e3;stop-opacity:1;"
         offset="0.02414773"
         id="stop29" /><stop
         style="stop-color:#1b6bee;stop-opacity:1;"
         offset="0.31543773"
         id="stop28" /><stop
         style="stop-color:#2386f1;stop-opacity:1;"
         offset="0.55255681"
         id="stop78" /></linearGradient><linearGradient
       id="linearGradient22"><stop
         style="stop-color:#2e00de;stop-opacity:1;"
         offset="0.75380272"
         id="stop23" /><stop
         style="stop-color:#ffffff;stop-opacity:1;"
         offset="0.87460506"
         id="stop24" /></linearGradient><linearGradient
       id="linearGradient18"><stop
         style="stop-color:#3d00d8;stop-opacity:1;"
         offset="0.03267045"
         id="stop21" /><stop
         style="stop-color:#2500e1;stop-opacity:1;"
         offset="0.70738637"
         id="stop20" /></linearGradient><linearGradient
       id="linearGradient5"><stop
         style="stop-color:#7300c4;stop-opacity:1;"
         offset="0.38113672"
         id="stop5" /><stop
         style="stop-color:#5e00cc;stop-opacity:1;"
         offset="0.60369313"
         id="stop15" /></linearGradient><linearGradient
       id="linearGradient565"><stop
         style="stop-color:#5e00cc;stop-opacity:1;"
         offset="0.04119318"
         id="stop17" /><stop
         style="stop-color:#3d00d8;stop-opacity:1;"
         offset="0.53977275"
         id="stop566" /></linearGradient><linearGradient
       id="linearGradient12"><stop
         style="stop-color:#009edc;stop-opacity:1;"
         offset="0"
         id="stop13" /><stop
         style="stop-color:#184c96;stop-opacity:1;"
         offset="1"
         id="stop14" /></linearGradient><linearGradient
       id="linearGradient8"><stop
         style="stop-color:#005aed;stop-opacity:1;"
         offset="0"
         id="stop9" /><stop
         style="stop-color:#0045ce;stop-opacity:1;"
         offset="0.67479676"
         id="stop12" /><stop
         style="stop-color:#000062;stop-opacity:1;"
         offset="1"
         id="stop10" /></linearGradient><linearGradient
       id="linearGradient6"><stop
         style="stop-color:#390476;stop-opacity:1;"
         offset="0"
         id="stop6" /><stop
         style="stop-color:#8b50bb;stop-opacity:1;"
         offset="0.4585366"
         id="stop8" /><stop
         style="stop-color:#dd9bff;stop-opacity:1;"
         offset="1"
         id="stop7" /></linearGradient><linearGradient
       id="linearGradient3"><stop
         style="stop-color:#170038;stop-opacity:1;"
         offset="0"
         id="stop3" /><stop
         style="stop-color:#4400ac;stop-opacity:1;"
         offset="0.39674801"
         id="stop11" /><stop
         style="stop-color:#6400fb;stop-opacity:1;"
         offset="1"
         id="stop4" /></linearGradient><linearGradient
       xlink:href="#linearGradient3"
       id="linearGradient4"
       x1="82.870506"
       y1="222.871"
       x2="367.76706"
       y2="222.871"
       gradientUnits="userSpaceOnUse" /><linearGradient
       xlink:href="#linearGradient6"
       id="linearGradient7"
       x1="82.377022"
       y1="222.95197"
       x2="368.43454"
       y2="222.95197"
       gradientUnits="userSpaceOnUse" /><filter
       style="color-interpolation-filters:sRGB"
       id="filter7"
       x="-0.004249955"
       y="-0.0043921685"
       width="1.0091107"
       height="1.0093717"><feGaussianBlur
         stdDeviation="0.29888149"
         id="feGaussianBlur7" /></filter><linearGradient
       xlink:href="#linearGradient8"
       id="linearGradient10"
       x1="130.00117"
       y1="277.3595"
       x2="410.64188"
       y2="277.3595"
       gradientUnits="userSpaceOnUse" /><linearGradient
       xlink:href="#linearGradient12"
       id="linearGradient14"
       x1="130.00117"
       y1="277.3595"
       x2="410.64188"
       y2="277.3595"
       gradientUnits="userSpaceOnUse" /><filter
       style="color-interpolation-filters:sRGB"
       id="filter14"
       x="-0.0048512791"
       y="-0.0049705314"
       width="1.0088926"
       height="1.0091572"><feGaussianBlur
         stdDeviation="0.266943"
         id="feGaussianBlur14" /></filter><linearGradient
       xlink:href="#linearGradient565"
       id="linearGradient566"
       x1="143.78677"
       y1="209.94467"
       x2="182.72151"
       y2="218.66808"
       gradientUnits="userSpaceOnUse"
       gradientTransform="translate(4.7439931,-0.98942093)" /><linearGradient
       xlink:href="#linearGradient5"
       id="linearGradient16"
       x1="92.028641"
       y1="206.05588"
       x2="149.16179"
       y2="222.4882"
       gradientUnits="userSpaceOnUse"
       gradientTransform="translate(-0.32797569,-0.98392706)" /><linearGradient
       xlink:href="#linearGradient18"
       id="linearGradient20"
       x1="207.9967"
       y1="188.7598"
       x2="248.2774"
       y2="213.97437"
       gradientUnits="userSpaceOnUse"
       gradientTransform="translate(5.247611,-1.2025775)" /><linearGradient
       xlink:href="#linearGradient22"
       id="linearGradient24"
       x1="171.61552"
       y1="202.98029"
       x2="229.66112"
       y2="214.18947"
       gradientUnits="userSpaceOnUse"
       gradientTransform="translate(5.247611,-1.2025775)" /><linearGradient
       xlink:href="#linearGradient26"
       id="linearGradient28"
       x1="258.34412"
       y1="230.80867"
       x2="307.77307"
       y2="222.71861"
       gradientUnits="userSpaceOnUse"
       gradientTransform="translate(8.0900669,-1.3119027)" /><linearGradient
       xlink:href="#linearGradient30"
       id="linearGradient32"
       x1="304.1925"
       y1="253.89442"
       x2="349.3335"
       y2="168.24094"
       gradientUnits="userSpaceOnUse"
       gradientTransform="translate(3.3638884,6.0161058)" /><linearGradient
       xlink:href="#linearGradient33"
       id="linearGradient35"
       x1="300.63651"
       y1="212.30455"
       x2="369.43268"
       y2="212.30455"
       gradientUnits="userSpaceOnUse"
       gradientTransform="translate(3.3638884,6.0161058)" /><filter
       style="color-interpolation-filters:sRGB"
       id="filter35"
       x="-0.011585691"
       y="-0.010320673"
       width="1.023185"
       height="1.0206419"><feGaussianBlur
         stdDeviation="0.070199281"
         id="feGaussianBlur35" /></filter><linearGradient
       xlink:href="#linearGradient37"
       id="linearGradient38"
       x1="378.26865"
       y1="252.78606"
       x2="397.69092"
       y2="166.3595"
       gradientUnits="userSpaceOnUse"
       gradientTransform="matrix(1.0862972,0,0,1.0862972,-29.767434,-15.715413)" /><linearGradient
       xlink:href="#linearGradient51"
       id="linearGradient52"
       x1="185.24623"
       y1="274.19562"
       x2="198.85637"
       y2="150.0444"
       gradientUnits="userSpaceOnUse" /><linearGradient
       xlink:href="#linearGradient39"
       id="linearGradient60"
       gradientUnits="userSpaceOnUse"
       gradientTransform="translate(0.60290993,9.4828666)"
       x1="105.52232"
       y1="265.42166"
       x2="231.64262"
       y2="265.42166" /><linearGradient
       xlink:href="#linearGradient39"
       id="linearGradient61"
       gradientUnits="userSpaceOnUse"
       gradientTransform="matrix(1,0,0,-1,0.78222993,557.35093)"
       x1="105.52232"
       y1="265.42166"
       x2="231.64262"
       y2="265.42166" /><linearGradient
       xlink:href="#linearGradient64"
       id="linearGradient62"
       gradientUnits="userSpaceOnUse"
       gradientTransform="rotate(180,243.51925,278.67427)"
       x1="105.52232"
       y1="265.42166"
       x2="231.64262"
       y2="265.42166" /><linearGradient
       xlink:href="#linearGradient66"
       id="linearGradient63"
       gradientUnits="userSpaceOnUse"
       gradientTransform="matrix(-1,0,0,1,486.85916,9.4804666)"
       x1="105.52232"
       y1="265.42166"
       x2="231.64262"
       y2="265.42166" /><filter
       style="color-interpolation-filters:sRGB"
       id="filter66"
       x="-0.070351161"
       y="-0.063493584"
       width="1.1406352"
       height="1.1268764"><feGaussianBlur
         stdDeviation="0.5033568"
         id="feGaussianBlur66" /></filter><filter
       style="color-interpolation-filters:sRGB"
       id="filter68"
       x="-0.067797269"
       y="-0.065611689"
       width="1.1355946"
       height="1.1312017"><feGaussianBlur
         stdDeviation="0.50979902"
         id="feGaussianBlur68" /></filter><filter
       style="color-interpolation-filters:sRGB"
       id="filter69"
       x="-0.066306631"
       y="-0.065096473"
       width="1.1325143"
       height="1.1304353"><feGaussianBlur
         stdDeviation="0.53380845"
         id="feGaussianBlur69" /></filter><filter
       style="color-interpolation-filters:sRGB"
       id="filter70"
       x="-0.079386989"
       y="-0.075881426"
       width="1.1589331"
       height="1.1517019"><feGaussianBlur
         stdDeviation="0.67096582"
         id="feGaussianBlur70" /></filter><filter
       style="color-interpolation-filters:sRGB"
       id="filter71"
       x="-0.10641045"
       y="-0.10183682"
       width="1.213156"
       height="1.2035403"><feGaussianBlur
         stdDeviation="0.34105527"
         id="feGaussianBlur71" /></filter><filter
       style="color-interpolation-filters:sRGB"
       id="filter72"
       x="-0.28984303"
       y="-0.056688599"
       width="1.5796869"
       height="1.1133773"><feGaussianBlur
         stdDeviation="0.39971308"
         id="feGaussianBlur72" /></filter><filter
       style="color-interpolation-filters:sRGB"
       id="filter73"
       x="-0.077819877"
       y="-0.076555498"
       width="1.1555849"
       height="1.1531583"><feGaussianBlur
         stdDeviation="0.7278534"
         id="feGaussianBlur73" /></filter><filter
       style="color-interpolation-filters:sRGB"
       id="filter74"
       x="-0.083815569"
       y="-0.075625141"
       width="1.167564"
       height="1.1511395"><feGaussianBlur
         stdDeviation="0.65378934"
         id="feGaussianBlur74" /></filter><filter
       style="color-interpolation-filters:sRGB"
       id="filter75"
       x="-0.077820344"
       y="-0.076555223"
       width="1.1555858"
       height="1.1531578"><feGaussianBlur
         stdDeviation="0.38127914"
         id="feGaussianBlur75" /></filter><linearGradient
       xlink:href="#linearGradient83"
       id="linearGradient75"
       gradientUnits="userSpaceOnUse"
       x1="107.90301"
       y1="205.7458"
       x2="185.45464"
       y2="218.66808"
       gradientTransform="translate(2.0108624,-0.98942093)" /><linearGradient
       xlink:href="#linearGradient85"
       id="linearGradient76"
       gradientUnits="userSpaceOnUse"
       x1="159.05621"
       y1="211.76512"
       x2="287.90839"
       y2="219.14374"
       gradientTransform="translate(8.0900669,-1.3119027)" /><linearGradient
       xlink:href="#linearGradient87"
       id="linearGradient77"
       gradientUnits="userSpaceOnUse"
       x1="126.47728"
       y1="217.45004"
       x2="226.68626"
       y2="221.6582"
       gradientTransform="translate(5.247611,-1.2025775)" /><linearGradient
       xlink:href="#linearGradient81"
       id="linearGradient78"
       gradientUnits="userSpaceOnUse"
       x1="44.361263"
       y1="230.01678"
       x2="150.69334"
       y2="210.73079"
       gradientTransform="translate(-0.32797569,-0.98392706)" /><linearGradient
       xlink:href="#linearGradient81"
       id="linearGradient88"
       gradientUnits="userSpaceOnUse"
       gradientTransform="translate(0.53299,0.15586708)"
       x1="44.361263"
       y1="230.01678"
       x2="150.69334"
       y2="210.73079" /><linearGradient
       xlink:href="#linearGradient91"
       id="linearGradient89"
       gradientUnits="userSpaceOnUse"
       gradientTransform="translate(0.53299,0.15586708)"
       x1="92.028641"
       y1="206.05588"
       x2="149.16179"
       y2="222.4882" /><linearGradient
       xlink:href="#linearGradient83"
       id="linearGradient95"
       gradientUnits="userSpaceOnUse"
       gradientTransform="matrix(1.0080184,0,0,0.99707726,0.94864327,0.94768626)"
       x1="107.90301"
       y1="205.7458"
       x2="185.45464"
       y2="218.66808" /><linearGradient
       xlink:href="#linearGradient97"
       id="linearGradient96"
       gradientUnits="userSpaceOnUse"
       gradientTransform="matrix(1.0080184,0,0,0.99707726,3.7036893,0.94768626)"
       x1="143.78677"
       y1="209.94467"
       x2="182.72151"
       y2="218.66808" /><linearGradient
       xlink:href="#linearGradient87"
       id="linearGradient98"
       gradientUnits="userSpaceOnUse"
       gradientTransform="matrix(1.0136717,0,0,0.9983708,5.439386,0.69690063)"
       x1="126.47728"
       y1="217.45004"
       x2="226.68626"
       y2="221.6582" /><linearGradient
       xlink:href="#linearGradient101"
       id="linearGradient99"
       gradientUnits="userSpaceOnUse"
       gradientTransform="matrix(1.0136717,0,0,0.9983708,5.439386,0.69690063)"
       x1="207.9967"
       y1="188.7598"
       x2="248.2774"
       y2="213.97437" /><linearGradient
       xlink:href="#linearGradient85"
       id="linearGradient102"
       gradientUnits="userSpaceOnUse"
       gradientTransform="matrix(1.0002959,0,0,0.98216282,8.5193832,4.4187144)"
       x1="159.05621"
       y1="211.76512"
       x2="287.90839"
       y2="219.14374" /><linearGradient
       xlink:href="#linearGradient106"
       id="linearGradient103"
       gradientUnits="userSpaceOnUse"
       gradientTransform="matrix(1.0002959,0,0,0.98216282,8.5193832,4.4187144)"
       x1="258.34412"
       y1="230.80867"
       x2="307.77307"
       y2="222.71861" /></defs><g
     id="layer1"
     style="display:inline"><circle
       style="fill:#000000"
       id="path1"
       cx="246.75632"
       cy="248.92085"
       r="166.05031" /><path
       id="circle2"
       style="display:inline;mix-blend-mode:normal;fill:url(#linearGradient4);stroke:url(#linearGradient7);stroke-width:0.986965;stroke-opacity:1;filter:url(#filter7)"
       d="m 198.76979,216.77923 c 33.47468,36.37378 -21.18303,126.42669 -58.55464,111.90452 -2.82574,-1.09805 58.61485,-23.49277 -13.12217,32.02338 -3.45244,-3.43128 -5.0868,-5.48479 -6.20217,-6.8208 C 97.153993,325.45397 82.870541,288.85546 82.870544,248.92085 82.87055,158.40924 156.24471,85.03508 246.75632,85.03508 c 45.4232,0 86.53029,18.47949 116.21337,48.33059 1.73761,1.74745 2.69037,2.88502 4.79754,5.20934 -1.20383,1.31565 -3.63016,3.62382 -5.55943,5.42812 -27.28223,25.51494 -163.43801,33.14895 -163.43801,72.7761 z" /><path
       id="path3"
       style="display:inline;fill:url(#linearGradient10);stroke:url(#linearGradient14);stroke-width:0.986965;filter:url(#filter14)"
       d="m 410.64209,248.92085 c 0,90.51162 -73.37415,163.88578 -163.88577,163.88578 -42.52738,0 -81.27142,-16.19838 -110.39885,-42.76188 -2.17308,-1.98179 -4.29263,-4.02127 -6.35623,-6.11603 53.1424,-46.03229 23.976,-43.97494 22.05412,-46.14335 -25.63375,-28.92193 157.55571,60.28171 157.55571,18.59566 1e-5,-90.51161 -72.02839,-14.5475 18.48322,-14.5475 44.92206,0 -10.14618,-193.79831 19.45786,-164.52556 1.9483,1.92651 9.86144,-2.76732 23.02683,-15.39534 1.92072,2.09858 0.89042,0.63959 2.70114,2.8363 23.34235,28.31827 37.36197,64.60786 37.36197,104.17192 z" /><circle
       style="display:inline;fill:#000000;fill-opacity:1;stroke-width:0.953445"
       id="circle3"
       cx="246.75632"
       cy="248.92085"
       r="158.31984" /><path
       style="fill:url(#linearGradient32);stroke:url(#linearGradient35);stroke-width:1.20035;stroke-linejoin:bevel;stroke-dasharray:none;stroke-dashoffset:0;stroke-opacity:1;filter:url(#filter35)"
       d="m 319.87277,204.29026 4.42447,-14.09841 10.13138,-9.17408 30.5224,0.40475 7.18175,10.11846 -6.79701,21.45115 -38.94636,31.36629 30.00941,0.40475 -2.34864,10.72654 -45.76753,-0.2516 4.86975,-15.1181 37.56339,-32.25456 3.59088,-11.46761 -14.49174,-0.26983 -2.18016,1.48403 -3.9115,7.55515 z"
       id="path18"
       transform="matrix(1.0862972,0,0,1.0862972,-27.37536,-23.426353)" /><path
       style="fill:url(#linearGradient38);stroke:#ffffff;stroke-width:1.30561;stroke-dasharray:none;stroke-dashoffset:0;stroke-opacity:1"
       d="m 375.4225,195.05273 3.06487,-9.08644 15.32439,-12.31066 15.60302,0.29313 -25.88352,79.91071 -17.27475,0.14657 19.05718,-58.36709 z"
       id="path19" /><path
       style="opacity:1;fill:#29008f;fill-opacity:1;stroke:#5900ff;stroke-width:1.35589;stroke-dasharray:none;stroke-opacity:1"
       d="m 151.31836,304.93254 c 0,0 -13.2997,-1.57966 -19.65968,0 -1.30841,0.32498 -2.57423,0.98846 -3.57449,1.89238 -1.0312,0.93187 -1.93236,2.13258 -2.3129,3.46935 -0.57602,2.02342 -0.64931,4.19687 -0.10513,6.22909 0.3082,1.15094 1.0396,2.21822 1.91865,3.02254 0.9268,0.84801 2.50214,1.63724 3.73218,1.89237 4.39228,0.91105 9.00651,-1.49077 13.27291,-0.10512 0.86016,0.27935 1.79395,1.29849 2.20778,2.10264 0.57728,1.12175 0.48279,2.09355 0,3.2591 -0.34138,0.82417 -1.06822,1.55099 -1.89238,1.89237 -4.98597,2.06525 -16.19032,0 -16.19032,0 l -2.83856,5.15146 c 0,0 13.73153,0.83121 20.39559,-0.52566 1.40288,-0.28563 2.69613,-0.85119 3.70591,-1.86609 0.95472,-0.95957 1.48767,-2.16989 1.76097,-3.49563 0.39647,-1.92327 0.55202,-3.66616 0.0789,-5.57201 -0.32155,-1.29511 -0.80554,-2.61806 -1.78726,-3.52191 -0.96878,-0.89192 -2.36934,-1.65269 -3.65333,-1.94494 -4.40807,-1.00331 -9.21856,1.1487 -13.56202,-0.10512 -0.83157,-0.24005 -1.8734,-1.03915 -2.12893,-1.8661 -0.4138,-1.33919 -0.38688,-2.06639 0.13138,-3.18025 0.36605,-0.78665 1.08503,-1.46941 1.89237,-1.78723 4.82612,-1.89991 15.55953,0.10513 15.55953,0.10513 z"
       id="path20" /><path
       style="display:inline;fill:#008bc7;fill-opacity:1;stroke:#52ebff;stroke-width:1.35589;stroke-dasharray:none;stroke-opacity:1"
       d="m 371.97789,304.29507 c 0,0 -13.29969,-1.57966 -19.65968,0 -1.30841,0.32498 -2.57423,0.98846 -3.57449,1.89237 -1.0312,0.93188 -1.93235,2.13259 -2.3129,3.46936 -0.57602,2.02341 -0.6493,4.19686 -0.10513,6.22908 0.3082,1.15095 1.03961,2.21822 1.91865,3.02255 0.92681,0.84801 2.50214,1.63724 3.73218,1.89237 4.39228,0.91105 9.00651,-1.49077 13.27292,-0.10512 0.86015,0.27935 1.79395,1.29848 2.20777,2.10263 0.57729,1.12176 0.48279,2.09356 0,3.2591 -0.34138,0.82417 -1.06821,1.551 -1.89238,1.89238 -4.98597,2.06525 -16.19031,0 -16.19031,0 l -2.83856,5.15146 c 0,0 13.73153,0.83121 20.39559,-0.52566 1.40287,-0.28563 2.69612,-0.85119 3.7059,-1.8661 0.95473,-0.95957 1.48767,-2.16988 1.76097,-3.49562 0.39647,-1.92327 0.55203,-3.66616 0.0789,-5.57201 -0.32155,-1.29511 -0.80554,-2.61806 -1.78726,-3.52191 -0.96877,-0.89193 -2.36934,-1.65269 -3.65333,-1.94494 -4.40807,-1.00332 -9.21856,1.1487 -13.56202,-0.10512 -0.83157,-0.24005 -1.8734,-1.03916 -2.12892,-1.8661 -0.4138,-1.33919 -0.38689,-2.06639 0.13137,-3.18025 0.36605,-0.78665 1.08504,-1.46941 1.89237,-1.78723 4.82613,-1.89991 15.55953,0.10512 15.55953,0.10512 z"
       id="path20-8" /><path
       style="fill:#4900ff;fill-opacity:1;stroke:#5a00ff;stroke-width:1.35589;stroke-dasharray:none;stroke-opacity:1"
       d="m 163.51366,304.93254 -0.0263,5.2566 11.6171,-0.0262 v 23.73353 l 5.17775,2e-5 0.0789,-23.73355 11.22282,-0.0263 -0.0263,-5.23031 z"
       id="path21" /><path
       style="fill:#4700ff;fill-opacity:1;stroke:#9400ff;stroke-width:1.35589;stroke-dasharray:none;stroke-opacity:1"
       d="m 203.70037,304.93256 c 0,0 -3.05133,16.35075 0.0789,23.54956 0.93916,2.1599 2.96087,3.97088 5.15147,4.83607 5.32911,2.10476 12.02544,2.45692 17.18907,-0.0263 2.2972,-1.10473 3.93142,-3.56386 4.78351,-5.96624 2.49523,-7.0351 0.13137,-22.39311 0.13137,-22.39311 h -4.99378 c 0,0 2.36813,14.08095 0.0263,20.50073 -0.50283,1.3784 -1.50794,2.74595 -2.83856,3.36423 -3.40054,1.58007 -7.82114,1.51963 -11.24912,0 -1.38354,-0.61333 -2.49696,-1.95504 -3.04882,-3.36423 -2.492,-6.36338 -0.21027,-20.50073 -0.21027,-20.50073 z"
       id="path22" /><path
       style="display:inline;fill:#008ac6;fill-opacity:1;stroke:#52ecff;stroke-width:1.35589;stroke-dasharray:none;stroke-opacity:1"
       d="m 246.27883,304.93254 -0.0263,28.70104 c 0,0 16.09245,1.88373 22.76108,-0.78848 2.46216,-0.98662 3.52393,-2.3474 4.57324,-4.7835 2.19732,-5.10137 1.78345,-11.40306 0,-16.66343 -0.87883,-2.59216 -2.22259,-4.41595 -4.67837,-5.62455 -6.67367,-3.28445 -22.62966,-0.84108 -22.62966,-0.84108 z"
       id="path23" /><path
       style="display:none;fill:#000000;stroke:#ffffff;stroke-opacity:1"
       d="m 256.90255,328.95043 -0.0193,13.43169 c 0,0 7.25308,0.8861 10.49411,-0.46382 1.07229,-0.44663 2.05192,-0.93536 2.49307,-2.00992 1.0398,-2.53275 1.12826,-5.72785 -0.0193,-8.21362 -0.59366,-1.28592 -2.11108,-1.94535 -3.44006,-2.4351 -3.04047,-1.12046 -9.50847,-0.30923 -9.50847,-0.30923 z"
       id="path24" /><path
       style="fill:#008bc7;fill-opacity:1;stroke:#52ebff;stroke-width:1.35589;stroke-dasharray:none;stroke-opacity:1"
       d="m 288.62073,304.82742 0.0263,28.885 5.59829,0.0262 0.0263,-28.93757 z"
       id="path25" /><path
       style="fill:#008bc7;fill-opacity:1;stroke:#52ebff;stroke-width:1.35589;stroke-dasharray:none;stroke-opacity:1"
       d="m 308.89502,310.37415 c -2.29189,5.08428 -1.96175,11.51547 0.0136,16.73092 0.95318,2.51673 2.88915,4.94821 5.34344,6.05227 5.2189,2.34775 11.92112,2.2494 17.16792,-0.0352 2.53681,-1.10463 4.64708,-3.49304 5.66707,-6.06506 1.9404,-4.8929 1.90538,-10.86234 0.057,-15.79077 -1.01087,-2.69532 -3.07889,-5.30067 -5.70237,-6.48557 -4.92977,-2.22656 -11.14292,-2.10815 -16.20152,-0.19223 -2.62689,0.99491 -5.19072,3.22491 -6.34509,5.78573 z"
       id="path27" /><path
       style="display:inline;fill:url(#linearGradient98);fill-opacity:1;stroke:url(#linearGradient99);stroke-width:2.36496;stroke-dasharray:none;stroke-opacity:1"
       d="m 185.43804,253.5749 14.43281,-0.13286 7.19708,-10.05857 17.67959,-0.21829 -4.73613,10.246 14.73615,-0.0783 21.55751,-78.2404 -18.53121,-0.0319 z"
       id="path15-1" /><g
       id="g50"
       style="fill:url(#linearGradient52)"
       transform="translate(2.1865046,0.65595137)"><path
         style="display:inline;fill:url(#linearGradient102);fill-opacity:1;stroke:url(#linearGradient103);stroke-width:2.33015;stroke-miterlimit:9;stroke-dasharray:none;stroke-opacity:1"
         d="m 237.55245,253.08913 21.06415,-77.13128 14.05797,0.20659 5.96035,30.1854 20.98924,-30.38846 16.58081,0.10736 -13.9455,77.12776 -16.30082,-0.0654 9.09623,-47.98259 -20.77692,24.34668 -8.39117,-24.93604 -13.74005,48.42255 z"
         id="path17-9" /><path
         style="display:inline;fill:url(#linearGradient95);fill-opacity:1;stroke:url(#linearGradient96);stroke-width:2.5728;stroke-dasharray:none"
         d="m 162.32126,175.50267 67.08087,-0.28126 -11.31761,16.95403 -44.2017,-0.68359 -5.04608,14.05793 32.10505,-0.15776 -12.33273,16.6112 -25.71549,-0.0893 -5.3825,14.49718 31.1484,-0.17838 -11.30998,16.98203 -42.18089,0.038 c 8.90388,-25.82973 17.78911,-52.08026 27.15266,-77.75014 z"
         id="path91" /><path
         d="m 136.94081,191.18332 -21.35872,61.13283 -19.912541,6.27851 23.361071,-66.97074 -23.472311,-0.33045 -11.527592,-16.60112 55.832473,0.37974 18.10804,0.10385 -5.85347,16.19233 z"
         style="display:inline;fill:url(#linearGradient88);fill-opacity:1;stroke:url(#linearGradient89);stroke-width:2.5663;stroke-dasharray:none;stroke-opacity:1"
         id="path1-9-8" /><path
         style="fill:url(#linearGradient75);fill-opacity:1;stroke:url(#linearGradient566);stroke-width:2.5663;stroke-dasharray:none"
         d="m 162.09982,174.07724 66.54727,-0.28208 -11.22758,17.00372 -43.85009,-0.68559 -5.00594,14.09913 31.84966,-0.15822 -12.23463,16.65989 -25.51093,-0.0895 -5.33968,14.53968 30.90063,-0.1789 -11.22002,17.0318 -41.84536,0.0381 c 8.83306,-25.90545 17.6476,-52.23293 26.93667,-77.97806 z"
         id="path14" /><path
         style="display:inline;fill:url(#linearGradient77);fill-opacity:1;stroke:url(#linearGradient20);stroke-width:2.35087;stroke-dasharray:none;stroke-opacity:1"
         d="m 182.81857,252.08809 14.23815,-0.13308 7.10002,-10.07498 17.44114,-0.21865 -4.67226,10.26272 14.5374,-0.0784 21.26676,-78.36807 -18.28127,-0.032 z"
         id="path15" /><path
         style="fill:url(#linearGradient76);fill-opacity:1;stroke:url(#linearGradient28);stroke-width:2.35087;stroke-miterlimit:9;stroke-dasharray:none;stroke-opacity:1"
         d="m 237.05538,251.87464 21.05792,-78.53207 14.05381,0.21036 5.95859,30.73358 20.98304,-30.94035 16.5759,0.10932 -13.94137,78.52848 -16.296,-0.0666 9.09354,-48.854 -20.77077,24.78884 -8.3887,-25.3889 -13.73598,49.30195 z"
         id="path17" /><path
         d="m 136.07984,190.04352 -21.35872,61.13283 -19.912539,6.27851 23.361069,-66.97074 -23.472309,-0.33045 -11.52759,-16.60112 55.832469,0.37974 18.10804,0.10385 -5.85347,16.19233 z"
         style="fill:url(#linearGradient78);fill-opacity:1;stroke:url(#linearGradient16);stroke-width:2.5663;stroke-dasharray:none;stroke-opacity:1"
         id="path1-9" /></g><path
       style="display:inline;fill:#000000;fill-opacity:1;stroke:url(#linearGradient24);stroke-width:2.35087;stroke-linejoin:miter;stroke-miterlimit:9.7;stroke-dasharray:none;stroke-opacity:1"
       d="m 213.76444,226.92968 15.16858,-0.12455 9.7166,-34.46871 z"
       id="path30" /><path
       id="rect4-8"
       style="display:none;fill:#686868;fill-opacity:1;stroke:#494949;stroke-width:1.43244;stroke-linecap:square;stroke-miterlimit:20.2;stroke-opacity:0"
       d="m 82.315301,174.0909 -0.203759,-0.28073 0.463868,0.004 7.138382,2.43926 -2.049623,1.47612 z" /><path
       d="m 135.80867,189.93356 -21.94691,61.17388 -17.197621,5.53987 23.281071,-66.44103 -24.438854,-0.43354 -10.557706,-14.59349 71.44681,0.37001 -5.67685,14.5516 z"
       style="display:none;fill:#ededed;fill-opacity:1;stroke:#ffffff;stroke-width:0;stroke-dasharray:none;stroke-opacity:0"
       id="path2" /><path
       id="rect4"
       style="display:none;fill:#797979;fill-opacity:1;stroke:#ffffff;stroke-width:1.43244;stroke-linecap:square;stroke-miterlimit:20.2;stroke-opacity:0"
       d="m 55.701206,153.87526 0.901931,-1.12058 0.956598,1.12058 v 15.82483 h -1.858529 z" /><g
       id="g63"
       transform="translate(0.65595137,-4.5916596)"><path
         style="display:inline;fill:url(#linearGradient60);stroke:#ffffff;stroke-width:0.31748;stroke-dasharray:none;stroke-opacity:1"
         d="m 107.53263,278.71097 5.23236,-7.65951 118.36432,0.17814 -1.9798,4.4532 -114.54613,-0.35625 -2.14264,3.21969 z"
         id="path28-7" /><path
         style="display:inline;fill:url(#linearGradient61);stroke:#ffffff;stroke-width:0.31748;stroke-dasharray:none;stroke-opacity:1"
         d="m 107.71195,288.12283 5.23236,7.65951 118.36432,-0.17814 -1.9798,-4.4532 -114.54613,0.35625 -2.14264,-3.21969 z"
         id="path28-1-9" /><path
         style="display:inline;fill:url(#linearGradient62);stroke:#ffffff;stroke-width:0.31748;stroke-dasharray:none;stroke-opacity:1"
         d="m 380.10877,288.12042 -5.23236,7.65951 -118.36432,-0.17814 1.9798,-4.4532 114.54613,0.35625 2.14264,-3.21969 z"
         id="path28-4-3" /><path
         style="display:inline;fill:url(#linearGradient63);stroke:#ffffff;stroke-width:0.31748;stroke-dasharray:none;stroke-opacity:1"
         d="m 379.92945,278.70856 -5.23236,-7.65951 -118.36432,0.17814 1.9798,4.4532 114.54613,-0.35625 2.14264,3.21969 z"
         id="path28-1-2-1" /><path
         id="path55-9"
         style="display:inline;stroke:#ffffff;stroke-width:1.64532"
         d="m 134.42453,277.80287 h 11.94182 l -15.85003,11.28802 h -11.94183 z" /><path
         id="path56-8"
         style="display:inline;stroke:#ffffff;stroke-width:1.64532"
         d="m 153.03893,277.80685 h 11.94182 l -15.85003,11.28801 h -11.94183 z" /><path
         id="path57-6"
         style="display:inline;stroke:#ffffff;stroke-width:1.64532"
         d="m 171.85902,277.82597 h 11.94183 l -15.85004,11.28802 h -11.94182 z" /><path
         id="path58-5"
         style="display:inline;stroke:#ffffff;stroke-width:1.64532"
         d="m 190.28972,277.85753 h 11.94182 l -15.85003,11.28802 h -11.94183 z" /><path
         id="path59-0"
         style="display:inline;stroke:#ffffff;stroke-width:1.64532"
         d="m 208.90412,277.86151 h 11.94182 l -15.85003,11.28801 h -11.94183 z" /><path
         id="path60-2"
         style="display:inline;stroke:#ffffff;stroke-width:1.64532"
         d="m 227.72421,277.88063 h 11.94183 L 223.816,289.16865 h -11.94182 z" /><path
         id="path58-6-8"
         style="display:inline;stroke:#ffffff;stroke-width:1.64532"
         d="m 246.00167,277.85162 h 11.94182 l -15.85003,11.28802 h -11.94183 z" /><path
         id="path59-8-6"
         style="display:inline;stroke:#ffffff;stroke-width:1.64532"
         d="m 264.61607,277.8556 h 11.94182 l -15.85003,11.28801 h -11.94183 z" /><path
         id="path60-5-0"
         style="display:inline;stroke:#ffffff;stroke-width:1.64532"
         d="m 283.43616,277.87472 h 11.94183 l -15.85004,11.28802 h -11.94182 z" /><path
         id="path58-6-9-2"
         style="display:inline;stroke:#ffffff;stroke-width:1.64532"
         d="m 301.90277,277.90521 h 11.94182 l -15.85003,11.28802 h -11.94183 z" /><path
         id="path59-8-2-4"
         style="display:inline;stroke:#ffffff;stroke-width:1.64532"
         d="m 320.51717,277.90919 h 11.94182 l -15.85003,11.28801 h -11.94183 z" /><path
         id="path60-5-7-8"
         style="display:inline;stroke:#ffffff;stroke-width:1.64532"
         d="m 339.33726,277.92831 h 11.94183 l -15.85004,11.28802 h -11.94182 z" /><path
         id="path60-5-7-1-6"
         style="display:inline;stroke:#ffffff;stroke-width:1.64532"
         d="m 358.19665,277.89075 h 11.94183 l -15.85004,11.28802 h -11.94182 z" /></g><path
       style="opacity:1;fill:#29008f;fill-opacity:1;stroke:#9402ff;stroke-width:1.35589;stroke-dasharray:none;stroke-opacity:1;filter:url(#filter66)"
       d="m 151.31836,304.93254 c 0,0 -13.2997,-1.57966 -19.65968,0 -1.30841,0.32498 -2.57423,0.98846 -3.57449,1.89238 -1.0312,0.93187 -1.93236,2.13258 -2.3129,3.46935 -0.57602,2.02342 -0.64931,4.19687 -0.10513,6.22909 0.3082,1.15094 1.0396,2.21822 1.91865,3.02254 0.9268,0.84801 2.50214,1.63724 3.73218,1.89237 4.39228,0.91105 9.00651,-1.49077 13.27291,-0.10512 0.86016,0.27935 1.79395,1.29849 2.20778,2.10264 0.57728,1.12175 0.48279,2.09355 0,3.2591 -0.34138,0.82417 -1.06822,1.55099 -1.89238,1.89237 -4.98597,2.06525 -16.19032,0 -16.19032,0 l -2.83856,5.15146 c 0,0 13.73153,0.83121 20.39559,-0.52566 1.40288,-0.28563 2.69613,-0.85119 3.70591,-1.86609 0.95472,-0.95957 1.48767,-2.16989 1.76097,-3.49563 0.39647,-1.92327 0.55202,-3.66616 0.0789,-5.57201 -0.32155,-1.29511 -0.80554,-2.61806 -1.78726,-3.52191 -0.96878,-0.89192 -2.36934,-1.65269 -3.65333,-1.94494 -4.40807,-1.00331 -9.21856,1.1487 -13.56202,-0.10512 -0.83157,-0.24005 -1.8734,-1.03915 -2.12893,-1.8661 -0.4138,-1.33919 -0.38688,-2.06639 0.13138,-3.18025 0.36605,-0.78665 1.08503,-1.46941 1.89237,-1.78723 4.82612,-1.89991 15.55953,0.10513 15.55953,0.10513 z"
       id="path66" /><path
       style="fill:#29008f;fill-opacity:1;stroke:#9400ff;stroke-width:1.35589;stroke-dasharray:none;stroke-opacity:1;filter:url(#filter68)"
       d="m 163.51366,304.93254 -0.0263,5.2566 11.6171,-0.0262 v 23.73353 l 5.17775,2e-5 0.0789,-23.73355 11.22282,-0.0263 -0.0263,-5.23031 z"
       id="path67" /><path
       style="fill:#28008f;fill-opacity:1;stroke:#9400ff;stroke-width:1.35589;stroke-dasharray:none;stroke-opacity:1;filter:url(#filter69)"
       d="m 203.70037,304.93256 c 0,0 -3.05133,16.35075 0.0789,23.54956 0.93916,2.1599 2.96087,3.97088 5.15147,4.83607 5.32911,2.10476 12.02544,2.45692 17.18907,-0.0263 2.2972,-1.10473 3.93142,-3.56386 4.78351,-5.96624 2.49523,-7.0351 0.13137,-22.39311 0.13137,-22.39311 h -4.99378 c 0,0 2.36813,14.08095 0.0263,20.50073 -0.50283,1.3784 -1.50794,2.74595 -2.83856,3.36423 -3.40054,1.58007 -7.82114,1.51963 -11.24912,0 -1.38354,-0.61333 -2.49696,-1.95504 -3.04882,-3.36423 -2.492,-6.36338 -0.21027,-20.50073 -0.21027,-20.50073 z"
       id="path68" /><path
       style="display:inline;fill:#005275;fill-opacity:1;stroke:#52ecff;stroke-width:1.35589;stroke-dasharray:none;stroke-opacity:1;filter:url(#filter70)"
       d="m 246.27883,304.93254 -0.0263,28.70104 c 0,0 16.09245,1.88373 22.76108,-0.78848 2.46216,-0.98662 3.52393,-2.3474 4.57324,-4.7835 2.19732,-5.10137 1.78345,-11.40306 0,-16.66343 -0.87883,-2.59216 -2.22259,-4.41595 -4.67837,-5.62455 -6.67367,-3.28445 -22.62966,-0.84108 -22.62966,-0.84108 z"
       id="path69" /><path
       style="display:inline;fill:#000000;fill-opacity:1;stroke:#52ebff;stroke-width:0.680315;stroke-linejoin:round;stroke-dasharray:none;stroke-opacity:1"
       d="m 253.45924,312.03483 -0.0136,14.38121 c 0,0 8.06344,0.94389 11.40489,-0.39509 1.23371,-0.49436 1.76573,-1.17619 2.29151,-2.39685 1.101,-2.55615 0.89362,-5.71374 0,-8.34954 -0.44036,-1.29885 -1.11368,-2.2127 -2.3442,-2.81829 -3.34397,-1.64574 -11.33902,-0.42144 -11.33902,-0.42144 z"
       id="path32" /><path
       style="display:inline;fill:#000000;fill-opacity:1;stroke:#52ebff;stroke-width:1.43622;stroke-dasharray:none;stroke-opacity:1;filter:url(#filter71)"
       d="m 253.45924,312.03483 -0.0136,14.38121 c 0,0 8.06344,0.94389 11.40489,-0.39509 1.23371,-0.49436 1.76573,-1.17619 2.29151,-2.39685 1.101,-2.55615 0.89362,-5.71374 0,-8.34954 -0.44036,-1.29885 -1.11368,-2.2127 -2.3442,-2.81829 -3.34397,-1.64574 -11.33902,-0.42144 -11.33902,-0.42144 z"
       id="path70" /><path
       style="fill:#005275;fill-opacity:1;stroke:#52ebff;stroke-width:1.35589;stroke-dasharray:none;stroke-opacity:1;filter:url(#filter72)"
       d="m 288.62073,304.82742 0.0263,28.885 5.59829,0.0262 0.0263,-28.93757 z"
       id="path71" /><path
       style="fill:#005275;fill-opacity:1;stroke:#52ebff;stroke-width:1.35589;stroke-dasharray:none;stroke-opacity:1;filter:url(#filter73)"
       d="m 308.89502,310.37415 c -2.29189,5.08428 -1.96175,11.51547 0.0136,16.73092 0.95318,2.51673 2.88915,4.94821 5.34344,6.05227 5.2189,2.34775 11.92112,2.2494 17.16792,-0.0352 2.53681,-1.10463 4.64708,-3.49304 5.66707,-6.06506 1.9404,-4.8929 1.90538,-10.86234 0.057,-15.79077 -1.01087,-2.69532 -3.07889,-5.30067 -5.70237,-6.48557 -4.92977,-2.22656 -11.14292,-2.10815 -16.20152,-0.19223 -2.62689,0.99491 -5.19072,3.22491 -6.34509,5.78573 z"
       id="path72" /><path
       style="display:inline;fill:#005275;fill-opacity:1;stroke:#52ebff;stroke-width:1.35589;stroke-dasharray:none;stroke-opacity:1;filter:url(#filter74)"
       d="m 371.97789,304.29507 c 0,0 -13.29969,-1.57966 -19.65968,0 -1.30841,0.32498 -2.57423,0.98846 -3.57449,1.89237 -1.0312,0.93188 -1.93235,2.13259 -2.3129,3.46936 -0.57602,2.02341 -0.6493,4.19686 -0.10513,6.22908 0.3082,1.15095 1.03961,2.21822 1.91865,3.02255 0.92681,0.84801 2.50214,1.63724 3.73218,1.89237 4.39228,0.91105 9.00651,-1.49077 13.27292,-0.10512 0.86015,0.27935 1.79395,1.29848 2.20777,2.10263 0.57729,1.12176 0.48279,2.09356 0,3.2591 -0.34138,0.82417 -1.06821,1.551 -1.89238,1.89238 -4.98597,2.06525 -16.19031,0 -16.19031,0 l -2.83856,5.15146 c 0,0 13.73153,0.83121 20.39559,-0.52566 1.40287,-0.28563 2.69612,-0.85119 3.7059,-1.8661 0.95473,-0.95957 1.48767,-2.16988 1.76097,-3.49562 0.39647,-1.92327 0.55203,-3.66616 0.0789,-5.57201 -0.32155,-1.29511 -0.80554,-2.61806 -1.78726,-3.52191 -0.96877,-0.89193 -2.36934,-1.65269 -3.65333,-1.94494 -4.40807,-1.00332 -9.21856,1.1487 -13.56202,-0.10512 -0.83157,-0.24005 -1.8734,-1.03916 -2.12892,-1.8661 -0.4138,-1.33919 -0.38689,-2.06639 0.13137,-3.18025 0.36605,-0.78665 1.08504,-1.46941 1.89237,-1.78723 4.82613,-1.89991 15.55953,0.10512 15.55953,0.10512 z"
       id="path73" /><path
       style="display:inline;fill:#000000;stroke:#52ebff;stroke-width:0.710273;stroke-dasharray:none;stroke-opacity:1"
       d="m 315.57162,314.48375 c -1.20058,2.66336 -1.02765,6.03229 0.007,8.76435 0.49931,1.31837 1.51346,2.59207 2.79912,3.17043 2.73387,1.22985 6.24477,1.17833 8.99327,-0.0185 1.32888,-0.57865 2.43433,-1.8298 2.96864,-3.17713 1.01646,-2.56311 0.99812,-5.69015 0.0299,-8.27186 -0.52953,-1.41192 -1.61284,-2.77671 -2.98713,-3.39741 -2.58242,-1.16637 -5.83713,-1.10434 -8.48703,-0.10064 -1.37607,0.52118 -2.71911,1.68934 -3.32382,3.03082 z"
       id="path31" /><path
       style="display:inline;fill:#000000;stroke:#52ebff;stroke-width:0.710273;stroke-dasharray:none;stroke-opacity:1;filter:url(#filter75)"
       d="m 315.57162,314.48375 c -1.20058,2.66336 -1.02765,6.03229 0.007,8.76435 0.49931,1.31837 1.51346,2.59207 2.79912,3.17043 2.73387,1.22985 6.24477,1.17833 8.99327,-0.0185 1.32888,-0.57865 2.43433,-1.8298 2.96864,-3.17713 1.01646,-2.56311 0.99812,-5.69015 0.0299,-8.27186 -0.52953,-1.41192 -1.61284,-2.77671 -2.98713,-3.39741 -2.58242,-1.16637 -5.83713,-1.10434 -8.48703,-0.10064 -1.37607,0.52118 -2.71911,1.68934 -3.32382,3.03082 z"
       id="path74" /></g></svg>
